<mxfile host="app.diagrams.net" modified="2024-01-27T18:37:16.833Z" agent="Mozilla/5.0 (Macintosh; Intel Mac OS X 10_15_7) AppleWebKit/605.1.15 (KHTML, like Gecko) Version/16.1 Safari/605.1.15" etag="Es4vkKKIjVlKQgtTEW2I" version="23.0.2" type="device">
  <diagram name="Page-1" id="5SaobEmCjY7MvUoaF5nl">
    <mxGraphModel dx="1026" dy="692" grid="1" gridSize="10" guides="1" tooltips="1" connect="1" arrows="1" fold="1" page="1" pageScale="1" pageWidth="850" pageHeight="1100" math="0" shadow="0">
      <root>
        <mxCell id="0" />
        <mxCell id="1" parent="0" />
        <mxCell id="_RkccRy084Coc3ZYnsJ7-21" value="" style="rounded=1;whiteSpace=wrap;html=1;fillColor=none;strokeWidth=3;strokeColor=#0080fe;" vertex="1" parent="1">
          <mxGeometry x="1130" y="160" width="110" height="140" as="geometry" />
        </mxCell>
        <mxCell id="_RkccRy084Coc3ZYnsJ7-12" value="" style="rounded=1;whiteSpace=wrap;html=1;fillColor=none;strokeWidth=3;strokeColor=#00dc82;" vertex="1" parent="1">
          <mxGeometry x="660" y="160" width="110" height="140" as="geometry" />
        </mxCell>
        <mxCell id="_RkccRy084Coc3ZYnsJ7-22" style="edgeStyle=orthogonalEdgeStyle;rounded=0;orthogonalLoop=1;jettySize=auto;html=1;entryX=0;entryY=0.5;entryDx=0;entryDy=0;strokeWidth=3;endArrow=blockThin;endFill=0;curved=0;strokeColor=#0e2636;" edge="1" parent="1" source="_RkccRy084Coc3ZYnsJ7-3" target="_RkccRy084Coc3ZYnsJ7-4">
          <mxGeometry relative="1" as="geometry" />
        </mxCell>
        <mxCell id="_RkccRy084Coc3ZYnsJ7-3" value="" style="rounded=1;whiteSpace=wrap;html=1;fillColor=none;strokeWidth=3;strokeColor=#0e2636;" vertex="1" parent="1">
          <mxGeometry x="170" y="160" width="110" height="140" as="geometry" />
        </mxCell>
        <mxCell id="_RkccRy084Coc3ZYnsJ7-1" value="" style="dashed=0;outlineConnect=0;html=1;align=center;labelPosition=center;verticalLabelPosition=bottom;verticalAlign=top;shape=mxgraph.weblogos.github" vertex="1" parent="1">
          <mxGeometry x="187.5" y="172.5" width="75" height="75" as="geometry" />
        </mxCell>
        <mxCell id="_RkccRy084Coc3ZYnsJ7-2" value="&lt;font style=&quot;font-size: 18px;&quot;&gt;GitHub&lt;br&gt;Secrets&lt;/font&gt;" style="text;html=1;strokeColor=none;fillColor=none;align=center;verticalAlign=middle;whiteSpace=wrap;rounded=0;" vertex="1" parent="1">
          <mxGeometry x="185" y="247.5" width="80" height="40" as="geometry" />
        </mxCell>
        <mxCell id="_RkccRy084Coc3ZYnsJ7-23" style="edgeStyle=orthogonalEdgeStyle;rounded=0;orthogonalLoop=1;jettySize=auto;html=1;entryX=0;entryY=0.5;entryDx=0;entryDy=0;endArrow=blockThin;endFill=0;strokeWidth=3;strokeColor=#0e2636;" edge="1" parent="1" source="_RkccRy084Coc3ZYnsJ7-4" target="_RkccRy084Coc3ZYnsJ7-9">
          <mxGeometry relative="1" as="geometry" />
        </mxCell>
        <mxCell id="_RkccRy084Coc3ZYnsJ7-4" value="" style="rounded=1;whiteSpace=wrap;html=1;fillColor=none;strokeWidth=3;strokeColor=#0e2636;" vertex="1" parent="1">
          <mxGeometry x="340" y="160" width="110" height="140" as="geometry" />
        </mxCell>
        <mxCell id="_RkccRy084Coc3ZYnsJ7-5" value="" style="dashed=0;outlineConnect=0;html=1;align=center;labelPosition=center;verticalLabelPosition=bottom;verticalAlign=top;shape=mxgraph.weblogos.github" vertex="1" parent="1">
          <mxGeometry x="357.5" y="172.5" width="75" height="75" as="geometry" />
        </mxCell>
        <mxCell id="_RkccRy084Coc3ZYnsJ7-6" value="&lt;font style=&quot;font-size: 18px;&quot;&gt;GitHub&lt;br&gt;Actions&lt;/font&gt;" style="text;html=1;strokeColor=none;fillColor=none;align=center;verticalAlign=middle;whiteSpace=wrap;rounded=0;" vertex="1" parent="1">
          <mxGeometry x="355" y="247.5" width="80" height="40" as="geometry" />
        </mxCell>
        <mxCell id="_RkccRy084Coc3ZYnsJ7-7" value="" style="shape=image;imageAspect=0;aspect=fixed;verticalLabelPosition=bottom;verticalAlign=top;image=https://nuxt.com/assets/design-kit/icon-green.png;" vertex="1" parent="1">
          <mxGeometry x="517.5" y="172.5" width="75" height="75" as="geometry" />
        </mxCell>
        <mxCell id="_RkccRy084Coc3ZYnsJ7-8" value="&lt;font size=&quot;4&quot;&gt;Nuxt Environment&lt;/font&gt;" style="text;html=1;strokeColor=none;fillColor=none;align=center;verticalAlign=middle;whiteSpace=wrap;rounded=0;fontColor=#00dc82;" vertex="1" parent="1">
          <mxGeometry x="503.75" y="240" width="102.5" height="40" as="geometry" />
        </mxCell>
        <mxCell id="_RkccRy084Coc3ZYnsJ7-24" style="edgeStyle=orthogonalEdgeStyle;rounded=0;orthogonalLoop=1;jettySize=auto;html=1;entryX=0;entryY=0.5;entryDx=0;entryDy=0;strokeWidth=3;endArrow=blockThin;endFill=0;strokeColor=#00dc82;" edge="1" parent="1" source="_RkccRy084Coc3ZYnsJ7-9" target="_RkccRy084Coc3ZYnsJ7-12">
          <mxGeometry relative="1" as="geometry" />
        </mxCell>
        <mxCell id="_RkccRy084Coc3ZYnsJ7-9" value="" style="rounded=1;whiteSpace=wrap;html=1;fillColor=none;strokeWidth=3;strokeColor=#00dc82;" vertex="1" parent="1">
          <mxGeometry x="500" y="160" width="110" height="140" as="geometry" />
        </mxCell>
        <mxCell id="_RkccRy084Coc3ZYnsJ7-10" value="" style="shape=image;imageAspect=0;aspect=fixed;verticalLabelPosition=bottom;verticalAlign=top;image=https://nuxt.com/assets/design-kit/icon-green.png;" vertex="1" parent="1">
          <mxGeometry x="677.5" y="172.5" width="75" height="75" as="geometry" />
        </mxCell>
        <mxCell id="_RkccRy084Coc3ZYnsJ7-11" value="&lt;font size=&quot;4&quot;&gt;Nuxt&lt;br&gt;Build&lt;/font&gt;" style="text;html=1;strokeColor=none;fillColor=none;align=center;verticalAlign=middle;whiteSpace=wrap;rounded=0;fontColor=#00dc82;" vertex="1" parent="1">
          <mxGeometry x="663.75" y="240" width="102.5" height="40" as="geometry" />
        </mxCell>
        <mxCell id="_RkccRy084Coc3ZYnsJ7-13" value="ðŸ“¦" style="text;whiteSpace=wrap;fontSize=60;align=center;verticalAlign=middle;aspect=fixed;" vertex="1" parent="1">
          <mxGeometry x="840" y="180" width="75" height="75" as="geometry" />
        </mxCell>
        <mxCell id="_RkccRy084Coc3ZYnsJ7-14" value="&lt;font size=&quot;4&quot;&gt;Build&lt;br&gt;Files&lt;/font&gt;" style="text;html=1;strokeColor=none;fillColor=none;align=center;verticalAlign=middle;whiteSpace=wrap;rounded=0;fontColor=#b98a60;" vertex="1" parent="1">
          <mxGeometry x="855.63" y="247.5" width="43.75" height="40" as="geometry" />
        </mxCell>
        <mxCell id="_RkccRy084Coc3ZYnsJ7-26" style="edgeStyle=orthogonalEdgeStyle;rounded=0;orthogonalLoop=1;jettySize=auto;html=1;entryX=0;entryY=0.5;entryDx=0;entryDy=0;strokeWidth=3;endArrow=blockThin;endFill=0;strokeColor=#b98a60;" edge="1" parent="1" source="_RkccRy084Coc3ZYnsJ7-15" target="_RkccRy084Coc3ZYnsJ7-16">
          <mxGeometry relative="1" as="geometry" />
        </mxCell>
        <mxCell id="_RkccRy084Coc3ZYnsJ7-15" value="" style="rounded=1;whiteSpace=wrap;html=1;fillColor=none;strokeWidth=3;strokeColor=#b98a60;" vertex="1" parent="1">
          <mxGeometry x="822.5" y="160" width="110" height="140" as="geometry" />
        </mxCell>
        <mxCell id="_RkccRy084Coc3ZYnsJ7-16" value="" style="rounded=1;whiteSpace=wrap;html=1;fillColor=none;strokeWidth=3;strokeColor=#0e2636;" vertex="1" parent="1">
          <mxGeometry x="980" y="160" width="110" height="140" as="geometry" />
        </mxCell>
        <mxCell id="_RkccRy084Coc3ZYnsJ7-17" value="" style="dashed=0;outlineConnect=0;html=1;align=center;labelPosition=center;verticalLabelPosition=bottom;verticalAlign=top;shape=mxgraph.weblogos.github" vertex="1" parent="1">
          <mxGeometry x="997.5" y="172.5" width="75" height="75" as="geometry" />
        </mxCell>
        <mxCell id="_RkccRy084Coc3ZYnsJ7-18" value="&lt;font style=&quot;font-size: 18px;&quot;&gt;GitHub&lt;br&gt;Actions&lt;/font&gt;" style="text;html=1;strokeColor=none;fillColor=none;align=center;verticalAlign=middle;whiteSpace=wrap;rounded=0;" vertex="1" parent="1">
          <mxGeometry x="995" y="247.5" width="80" height="40" as="geometry" />
        </mxCell>
        <mxCell id="_RkccRy084Coc3ZYnsJ7-19" value="" style="shape=image;imageAspect=0;aspect=fixed;verticalLabelPosition=bottom;verticalAlign=top;image=data:image/png,iVBORw0KGgoAAAANSUhEUgAAALQAAAC0CAYAAAA9zQYyAAAAGXRFWHRTb2Z0d2FyZQBBZG9iZSBJbWFnZVJlYWR5ccllPAAACXJJREFUeNrsne152kgURkfE/0MHSyoIqcBQQewKDBU4rsC4AtsVGFdgXIHlClapYJUOSAVeBg0JwUD0rXtnznkebdiNkx2ko1d3RqPRBwPgER/YBeATEbugJLO34eqf/dU2cJvldM9Pjnb+PXXbNslq++k+x7/+2yxasqMRum5xraxDt53uCNwGsTsBfrjPiI7QhQQeuVT97H7tC2xl6uT+vv51FiUcOITeTuAzl75SBf4bSyf4sxM8RegwJb5wpYRvJE7uRWjpHQUksU3eiccSHytPHlfbPITkjgIQeeQknlBhrsuSx5XYc4TWJ7IV+LrlEQlNNfe9j6kdeSaxLSu+rbZLpZ27LrBpfeOL2BEig09iR4gMPokdKZaZGrlZ7pzYS4RuVmQ75HZr3s+RgGY6j1bqO4Rupry4diUGtEu82q403KSJlMhs0/iB8qJzbFrPEJpU9gmb0lOpaR0JltnWyk+ksliuJNbWkVCZZy6ZQX5tfS5pJCQSJnLf1cpnuKIGK/NYSgkSCZKZEkM3UwmTniIhMp+5ZOZun27sZKdp2ELP3uwIxi0uUFfrF3r2ZlN5ggPekbi6ehmO0MgcgtTnbU9yijoQue86fyOOufe0PgISdSDziwnrmT6kblHqCJnBJ6l7LX4pZA6XLMyyUPNA6KwDiMxI3bjUUUsyTzie4Gh0SK/XsMwzZIYdNk8cKUvo7Jm/B44fHOBuldJXOoTOJhq9GOZmwHFqn9AUNSCzlfg/ZIYc1D6c14TQNplHgXd6lluff+75mc9bJ/ww8JO/1k7iSQOdwFFAB8Ju3399rnJQsgeB++b3mwJCEX3o+lrnshI6OyAvHu/41Py5qHjzM8myvsjI6F6MvdV6Oqppx/taN1uJFyZbgrb7R4yyByG+muwRNd/2tQ2IL1Vn59Ul9JPx6znAjcQLsS3M5L7wbL/bK9+4W6GzHfvkyQ61lzxdCxVmr9ewi1VOPEntSssjRBV3pi+lhsqFCfccCx9WYq1UelQVWnupoS+R84mtfbUp+7Kj83aF1j2qkbhLW+ztmIH+VVrHZY5PFaFtqTFQuKPELzhYs9jfXGJrK0PS1XH6VPQP9UrupJlCmRNXm4Uj8/pYrTtYX9z318TAnYwNJ7TOjuDclRhhvyN79narrLa2x+tTkeNWJqG1Xb6m69V8eOG7cdM1z83vuSbS6Rc9AaOCZ/jApbOWs/vc645ftQ6jlum9hVK6aEJfK5J5jMwHkzpRVFcXSumowFmtJZ07WbFHaVJrWVoid0oXSehrJTKPkTl3UmdXMvlJbU+8SX0JrSOdU5MNy9H58zOpc41L503oifBDsukAInP5pJ4a2aMfAzcRrqLQ2dl7qaADmGBm5Y7iWHgrL6sLLX8y+RUy1yr1VHALR678rSS05HS+k/BeD8+ktvtT8j69LC90NgAvtaOQNLFQCbirXtbJlshZlYSWms5ZJxCa7CRK3b8DF7SlhJY6ef+GseZW6ukbbWVH70i5IbUzGEt8Ja+n3AktPUZlEvqr0FJjimetlh4S+ykHy46esnLjnlKjdakXJltgRxoX+YWWWW6k7hIIXfRZlJQdhxL6VGhHkFvb3aR0LDClh/tusvSUlBspN1BI6Twp3dtTbgyMvAdgb/CJlM5TSfTy1iYdsiSdxfCoL6Hl1c/3eCQmpedG1hTTwW4drSGhSWeOx/HO4UGh5dXPC8adKTvKCy1vZt0j/ogrO+wcD0khc6pF6KXoBcfDRtJxOZrQp+w0yMGzoLb0tzuGvXe9Rjm84o3YsiM20kY7FAhNQssmFtSW0XuhswXMpZAwb0M8kq6gH/cldJ+zHwqFjsCOYe9Qb7FjvuOLijpaTsdwj9AfOftB6XESntAsHKOFVFqDepz14EVp6AY1toUeCGkaoxskdC0JLUVobqggtFclB+hB3N3CHmc9eNJ5R2jwD0oOQGgAqZxsfZayVAAlB9QgdGgvdQdKDgCEBkBoAISGtjnyrpMOSBEaqtJHaPCJASUHIHQzLBEaqvJZTj2fTZRCaKiCuLcMIzSUTMS3vqCSI0Fo8CmdlwgNVRkJassrQkNVJL1pmISGyvWzpJKDGhoqIe09lggN3pQb6fZKtQgNZcoNSQn9x5PnCA3ay40/liM7CSBRJkbGDYBY2BK0ZbkU1p44LKGNuTByxkx1C50tiCjrdvdOSFByQNFwEJvOCA1F0tmWbRNhrXpFaCjLtcA2LRAafEnn5b7FIhEa8nCrIZ0RGvKk88jIG3u2PCM0+JLOttwgoaFwOs+MwMeszJHXZiM0HJLZinwttHXPCA1FeRDaroPlhuUkx5k6a6hh81XDUrwRmc63QkuNzJsj5JnL0dRlJzYsbi5RZjui8U1wC++P/SYlB+zWzQ+CWxj/7aqO0LCR2U7cfzKyFmDc5fFvP4DQsJH5xQhcfHEL+6jVHKEhD0+CO4Ebcr3UCqFJZ1szj4S30j4Eu8jzgycc0aDLDCvzmYLW3m8/2Y3QcKhmHiporRX5Lu8PU3KEJ/NAkcyF0hmhw5PZ1sr/KpI5LZLOCB2WzDOXzH1Frb4pks7U0OGUGBpGMnZJ8ow7k9BhyTxxJcZIYeuvyvwhEppUlsi87CpTCO2XyLY+tjPlrhV/i2XZdEZo/0S+VNbp28e0aEcQoRFZKotjT6MgtL8i29rYrjM38ehbLdfpXBGE1iPx0Els514MPPyGlUoNhNZRTtgkPvVY4g3zqqUGQsuSd+CEtQL/Y7Jb08NAvr1dn+6qrr8syrGzXxr6Iulq+9HCDjsVcuAG5v1DwUNPOnNV6ubxvkUXmxO6uVR6a+n/ZOcDzASk8JuBfXXzvM6/kFvf0BU3dcuM0NBlJ7CRqyZCg+pOIEJD1zKP6xhvRmjomqWp6eYJQoMEmWsdnkNo8F5mhAavZEZo8EpmhIamSLuQ2cLkJKibxofmSGhoi7hLmUloqBN7O3vadSMQGupg2sREI4SGLjp/5110/qihoW7sI1NfJMlMQkMZbIfPzmW+k9g4hIYiJK5eTqQ2EKEhLzIeZUNoqEjsUjnV0FiEhmO18pWU4TiEhioi2/dp33V5xw+hoQ7mrlZOtX4BhAYvREZo8ErkDRHHtCXkrJykukYmoWFDvNoetY1aIDRsk64lzqZ2piF8YYT2U+KFS+MktC+P0P6UE8/rXwOUGKF1YztyVtpXJ3DMLkFoLSRO4Ff3OQmlFkZoHWXBIWl/7gicIi4AmP8FGAC6LdJn2AlYHAAAAABJRU5ErkJggg==;" vertex="1" parent="1">
          <mxGeometry x="1147.5" y="172.5" width="75" height="75" as="geometry" />
        </mxCell>
        <mxCell id="_RkccRy084Coc3ZYnsJ7-20" value="&lt;font style=&quot;font-size: 18px;&quot;&gt;DigitalOcean&lt;br&gt;App Platform&lt;/font&gt;" style="text;html=1;strokeColor=none;fillColor=none;align=center;verticalAlign=middle;whiteSpace=wrap;rounded=0;fontColor=#0080fe;" vertex="1" parent="1">
          <mxGeometry x="1130" y="247.5" width="110" height="40" as="geometry" />
        </mxCell>
        <mxCell id="_RkccRy084Coc3ZYnsJ7-25" style="edgeStyle=orthogonalEdgeStyle;rounded=0;orthogonalLoop=1;jettySize=auto;html=1;entryX=0;entryY=0.5;entryDx=0;entryDy=0;strokeWidth=3;endArrow=blockThin;endFill=0;strokeColor=#00dc82;exitX=1;exitY=0.5;exitDx=0;exitDy=0;" edge="1" parent="1" source="_RkccRy084Coc3ZYnsJ7-12" target="_RkccRy084Coc3ZYnsJ7-15">
          <mxGeometry relative="1" as="geometry">
            <mxPoint x="620" y="240" as="sourcePoint" />
            <mxPoint x="670" y="240" as="targetPoint" />
          </mxGeometry>
        </mxCell>
        <mxCell id="_RkccRy084Coc3ZYnsJ7-27" style="edgeStyle=orthogonalEdgeStyle;rounded=0;orthogonalLoop=1;jettySize=auto;html=1;entryX=0;entryY=0.5;entryDx=0;entryDy=0;endArrow=blockThin;endFill=0;strokeWidth=3;strokeColor=#0e2636;exitX=1;exitY=0.5;exitDx=0;exitDy=0;" edge="1" parent="1" source="_RkccRy084Coc3ZYnsJ7-16" target="_RkccRy084Coc3ZYnsJ7-21">
          <mxGeometry relative="1" as="geometry">
            <mxPoint x="460" y="240" as="sourcePoint" />
            <mxPoint x="510" y="240" as="targetPoint" />
          </mxGeometry>
        </mxCell>
      </root>
    </mxGraphModel>
  </diagram>
</mxfile>
